<svg width="104" height="105" viewBox="0 0 104 105" fill="none" xmlns="http://www.w3.org/2000/svg">
<path d="M47.7007 42.0481C47.7007 41.1506 46.8437 40.1709 45.0383 40.1709C42.7607 40.1709 41.5709 41.9087 41.5709 43.4323C41.5709 43.4375 42.5256 43.788 45.0279 43.788C46.7512 43.788 47.7007 43.1099 47.7007 42.0481Z" fill="#FFD300"/>
<path d="M27.847 40.166C26.0478 40.166 24.6157 41.5711 24.6157 44.2792C24.6157 46.8179 26.0156 47.9743 27.847 47.9743C29.511 47.9743 30.9129 46.9874 30.9129 44.0702C30.9129 41.2331 29.6171 40.166 27.847 40.166Z" fill="#FFD300"/>
<path d="M52 1.07129C27.5652 1.07129 7.76147 20.875 7.76147 45.3046C7.76147 69.7331 27.5652 89.5368 51.9937 89.5368C76.4223 89.5368 96.226 69.7331 96.226 45.3046C96.227 20.875 76.4233 1.07129 52 1.07129ZM27.744 59.5952C25.3437 59.5952 22.4837 58.4138 21.2409 56.8028C21.2326 56.7924 21.6923 54.7415 23.3542 54.7415C24.0104 54.7415 24.4982 55.1045 25.1544 55.4186C25.8928 55.7722 26.6884 56.0644 27.7648 56.0644C30.0008 56.0644 30.863 54.5876 30.863 52.3724V50.4547C30.551 50.7303 29.2624 51.6725 27.0472 51.6725C22.7832 51.6725 20.4245 48.0741 20.4245 44.2178C20.4245 40.0526 22.985 36.632 27.8678 36.632C32.8598 36.632 35.0625 40.0328 35.0625 45.0009V51.3875C35.0625 56.8444 32.4625 59.5952 27.744 59.5952ZM45.0486 49.6112C45.8427 49.6094 46.6281 49.4452 47.3564 49.1287C47.9512 48.8822 48.49 48.6003 49.218 48.6003C50.6032 48.6003 51.1118 50.5462 51.1066 50.5535C50.3651 51.6018 47.4385 53.1139 44.772 53.1139C40.0327 53.1139 37.2944 49.7651 37.2944 45.2359C37.2944 39.2975 41.1715 36.6351 44.8801 36.6351C48.7791 36.6351 51.4508 38.7744 51.4508 42.0359C51.4508 44.3239 50.1872 46.5432 44.9488 46.5432C42.51 46.5432 41.445 46.2312 41.445 46.2312C41.445 49.0798 43.7257 49.6081 45.0486 49.6081V49.6112ZM59.9497 53.1368C55.9114 53.1368 53.8023 50.2363 53.8023 45.81L53.8366 34.9847C53.8366 33.6084 54.2034 32.6221 54.9369 32.0259C55.6705 31.4296 56.7368 31.1304 58.136 31.1283C58.1131 31.2895 58.0892 31.5069 58.0673 31.7815C58.0434 32.0342 58.0268 32.3722 58.0153 32.7975C58.0039 33.2229 57.9976 33.7772 57.9976 34.4615L58.032 36.6279H62.6423C62.6423 37.6609 62.3556 38.4867 61.7822 39.1051C61.2088 39.7236 60.3945 40.0332 59.3392 40.0339H58.032L57.9976 44.9219C57.9911 45.7754 58.0893 46.6266 58.2899 47.4563C58.4615 48.1105 59.3871 49.631 61.1925 49.631C61.8903 49.6423 62.5865 49.5594 63.2621 49.3845C63.3602 49.7278 63.4044 50.0843 63.3932 50.4411C63.3942 52.0646 61.9424 53.1337 59.9497 53.1337V53.1368ZM65.885 32.2827C66.0854 31.8942 66.391 31.5698 66.7669 31.3467C67.1168 31.1306 67.5194 31.0147 67.9307 31.0119C68.2901 31.0144 68.6425 31.112 68.952 31.2947C69.3127 31.469 69.609 31.753 69.7985 32.1059C69.9851 32.4527 70.082 32.8406 70.0804 33.2343C70.0826 33.6547 69.9751 34.0684 69.7684 34.4345C69.2747 35.2568 68.5928 35.6683 67.7227 35.669C67.3553 35.6711 66.9926 35.5866 66.664 35.4225C66.3237 35.2231 66.0435 34.9357 65.8528 34.5905C65.6619 34.2342 65.565 33.8351 65.5712 33.431C65.5774 33.0268 65.6865 32.6309 65.8881 32.2807L65.885 32.2827ZM69.733 53.1108C67.4294 53.2034 65.6052 51.633 65.6052 48.7875L65.6396 40.8295C65.6396 39.4539 66.0067 38.468 66.7409 37.8717C67.4752 37.2754 68.553 36.9769 69.9743 36.9763C69.9514 37.1375 69.9285 37.3548 69.9056 37.6304C69.8828 37.8831 69.8651 38.2211 69.8547 38.6455C69.8443 39.0698 69.837 39.6251 69.837 40.3095V48.1209C69.837 49.1879 70.41 49.8369 71.3024 49.8369C71.655 49.8408 72.006 49.7888 72.3424 49.683C72.4109 50.0605 72.4457 50.4433 72.4464 50.827C72.4453 52.362 71.188 53.0536 69.7382 53.1108H69.733ZM81.0409 40.4426C78.6489 40.6433 78.4336 42.3811 78.4336 43.7352V49.4646C78.4336 50.1524 78.4395 50.707 78.4513 51.1286C78.4628 51.5539 78.4794 51.8909 78.5033 52.1436C78.5252 52.4192 78.5491 52.8134 78.572 52.9517C77.1732 52.9517 76.1207 52.9205 75.2148 52.2331C74.3828 51.6028 74.2029 50.3205 74.2029 48.9446V44.4726C74.2029 42.9361 74.4265 41.6805 74.8737 40.7057C75.3209 39.7309 75.8999 38.9682 76.6105 38.4177C77.314 37.8705 78.1315 37.4885 79.0025 37.2997C79.8667 37.1066 80.7493 37.0086 81.6348 37.0075H83.3206C83.4932 37.3819 83.565 38.0183 83.565 38.3595C83.564 39.8175 82.3846 40.3323 81.0409 40.4426Z" fill="#FFD300"/>
<path d="M51.4509 42.0326C51.4509 38.7711 48.7792 36.6318 44.8802 36.6318C41.1716 36.6318 37.2944 39.2942 37.2944 45.2326C37.2944 49.7618 40.0328 53.1106 44.772 53.1106C47.4386 53.1106 50.3652 51.5985 51.1067 50.5502C51.1067 50.5429 50.6033 48.597 49.218 48.597C48.49 48.597 47.9513 48.8789 47.3564 49.1253C46.6281 49.4419 45.8428 49.6061 45.0487 49.6079C43.7258 49.6079 41.4451 49.0796 41.4451 46.231C41.4451 46.231 42.51 46.543 44.9488 46.543C50.1873 46.5399 51.4509 44.3247 51.4509 42.0326ZM45.0383 40.171C46.8437 40.171 47.7007 41.1506 47.7007 42.0482C47.7007 43.11 46.7512 43.7881 45.0279 43.7881C42.5256 43.7881 41.5709 43.4376 41.5709 43.4324C41.5709 41.9088 42.7607 40.171 45.0383 40.171Z" fill="#5D3EBC"/>
<path d="M61.1936 49.6325C59.3881 49.6325 58.4625 48.112 58.2909 47.4579C58.0903 46.6281 57.9922 45.777 57.9987 44.9234L58.033 40.0354H59.3403C60.3962 40.0354 61.2105 39.7258 61.7832 39.1067C62.3559 38.4875 62.6426 37.6618 62.6433 36.6294H58.032L57.9976 34.4631C57.9976 33.7746 58.0035 33.2199 58.0153 32.7991C58.0268 32.3737 58.0434 32.0357 58.0673 31.783C58.0892 31.5084 58.1131 31.2911 58.136 31.1299C56.7368 31.1299 55.6701 31.428 54.9359 32.0243C54.2017 32.6205 53.8349 33.6068 53.8356 34.9831L53.8013 45.8084C53.8013 50.2347 55.9104 53.1352 59.9487 53.1352C61.9413 53.1352 63.3931 52.0661 63.3931 50.4447C63.4044 50.0879 63.3602 49.7314 63.2621 49.3881C62.5867 49.5622 61.8909 49.6444 61.1936 49.6325Z" fill="#5D3EBC"/>
<path d="M66.664 35.4223C66.9927 35.5864 67.3554 35.6709 67.7227 35.6688C68.5922 35.6688 69.2741 35.2573 69.7684 34.4343C69.9751 34.0682 70.0826 33.6545 70.0804 33.2341C70.082 32.8404 69.9852 32.4525 69.7986 32.1057C69.6091 31.7528 69.3127 31.4688 68.952 31.2945C68.6418 31.1118 68.2887 31.0145 67.9286 31.0127C67.5184 31.0161 67.117 31.132 66.768 31.3476C66.392 31.5707 66.0864 31.895 65.8861 32.2836C65.6844 32.6339 65.5753 33.0298 65.5691 33.4339C65.5629 33.8381 65.6598 34.2371 65.8507 34.5934C66.0424 34.9378 66.3234 35.2241 66.664 35.4223Z" fill="#5D3EBC"/>
<path d="M71.3076 49.8411C70.4153 49.8411 69.8422 49.1921 69.8422 48.1251V40.3137C69.8422 39.6252 69.8481 39.0705 69.8599 38.6497C69.8703 38.2254 69.888 37.8873 69.9109 37.6346C69.9338 37.359 69.9566 37.1417 69.9795 36.9805C68.5568 36.9805 67.479 37.279 66.7462 37.8759C66.0133 38.4729 65.6462 39.4574 65.6448 40.8295L65.6105 48.7876C65.6105 51.633 67.4346 53.2034 69.7382 53.1109C71.188 53.0537 72.4422 52.3621 72.4422 50.8333C72.4415 50.4496 72.4067 50.0668 72.3382 49.6893C72.0047 49.7934 71.657 49.8447 71.3076 49.8411Z" fill="#5D3EBC"/>
<path d="M81.6337 37.0108C80.7483 37.0119 79.8656 37.1099 79.0015 37.303C78.1305 37.4918 77.313 37.8739 76.6095 38.421C75.8981 38.9716 75.3192 39.7342 74.8727 40.7091C74.4262 41.6839 74.2026 42.9395 74.2019 44.4759V48.948C74.2019 50.3239 74.3829 51.6062 75.2138 52.2364C76.1197 52.9239 77.1721 52.9551 78.5709 52.9551C78.5481 52.8168 78.5241 52.4226 78.5023 52.147C78.4784 51.8943 78.4617 51.5573 78.4503 51.132C78.4389 50.7066 78.4326 50.1512 78.4326 49.468V43.7344C78.4326 42.3824 78.651 40.6425 81.0399 40.4418C82.3836 40.3295 83.5629 39.8178 83.5629 38.3618C83.5629 38.0238 83.4912 37.3873 83.3185 37.0098L81.6337 37.0108Z" fill="#5D3EBC"/>
<path d="M27.872 36.6318C22.9892 36.6318 20.4287 40.0524 20.4287 44.2176C20.4287 48.0739 22.7843 51.6723 27.0514 51.6723C29.2666 51.6723 30.5521 50.7301 30.8672 50.4545V52.3722C30.8672 54.5874 30.005 56.0642 27.769 56.0642C26.6926 56.0642 25.897 55.772 25.1586 55.4184C24.5024 55.1064 24.0146 54.7413 23.3584 54.7413C21.6944 54.7413 21.2368 56.7922 21.2451 56.8026C22.4879 58.4136 25.3479 59.595 27.7482 59.595C32.4667 59.595 35.0667 56.8442 35.0667 51.3873V45.0007C35.0626 40.0326 32.864 36.6318 27.872 36.6318ZM27.8512 47.9741C26.0198 47.9741 24.6199 46.8176 24.6199 44.279C24.6199 41.575 26.052 40.1658 27.8512 40.1658C29.6192 40.1658 30.9171 41.2328 30.9171 44.0699C30.913 46.9882 29.5079 47.9741 27.847 47.9741H27.8512Z" fill="#5D3EBC"/>
<path d="M19.2462 83.263C18.4319 82.5578 17.7299 82.431 17.7299 82.431L20.1957 79.5886L18.6295 78.2314L11.5273 86.4204C11.9444 87.5719 12.6485 88.5978 13.573 89.4011C15.4762 91.0515 17.8807 90.986 19.5634 89.0454C21.1598 87.2046 20.9487 84.7398 19.2462 83.263ZM18.0107 87.6986C17.0882 88.7625 15.7445 88.8707 14.7056 87.969C14.0285 87.3824 13.8538 86.9019 13.8538 86.9019L16.4382 83.9213C16.4382 83.9213 17.1766 83.9036 17.9161 84.5453C18.8177 85.3263 18.8687 86.7095 18.0107 87.6986Z" fill="white"/>
<path d="M25.3531 87.957L23.6184 86.8203L20.2249 92.0089C19.5801 92.9938 20.1105 94.3322 21.0725 94.9812L22.568 93.8809C22.0865 93.4649 22.0054 93.077 22.1863 92.7993L25.3531 87.957Z" fill="white"/>
<path d="M38.3313 93.6099C36.9678 93.1378 35.4994 93.6297 35.4994 93.6297C35.4994 93.6297 35.0834 92.4857 33.8811 92.0697C32.6789 91.6537 31.4475 92.156 31.4475 92.156L31.6077 91.4394L29.8054 90.8154L27.1689 98.4303L29.1283 99.1094L30.913 93.9542C30.913 93.9542 32.0102 93.3686 32.7309 93.6182C33.4516 93.8678 33.6898 94.547 33.3694 95.4715L31.7918 100.028L33.7501 100.707L35.3444 96.0997C35.4484 95.7877 35.567 95.457 35.567 95.457C35.567 95.457 36.5383 94.937 37.3526 95.2157C38.0744 95.4653 38.3282 96.1517 38.0089 97.0752L37.0531 99.8322C36.6569 100.976 37.4514 102.129 38.5684 102.551L39.728 101.13C39.155 100.809 39.0166 100.498 39.1425 100.137L39.9454 97.8188C40.6286 95.8438 40.2116 94.261 38.3313 93.6099Z" fill="white"/>
<path d="M49.3501 101.441L49.998 95.6731L47.9544 95.4432L47.32 101.079C47.32 101.079 46.3361 101.669 45.2982 101.552C44.4579 101.459 43.9462 101.068 44.0596 100.096L44.6254 95.0709L42.5454 94.8369L41.9838 99.8289C41.7706 101.724 42.6826 103.111 44.8906 103.36C46.3081 103.519 47.6101 102.914 47.6101 102.914C47.6101 102.914 48.3007 103.759 49.3376 103.876L50.1581 102.212C49.5477 102.063 49.3147 101.754 49.3501 101.441Z" fill="white"/>
<path d="M54.8391 100.85L54.6956 97.3716L56.6175 97.2936L56.5416 95.4382L54.6197 95.5162L54.5303 93.3135L52.4981 94.3431L52.5501 95.6015L51.3905 95.6493L51.4664 97.5047L52.626 97.4568L52.7737 101.068C52.8413 102.724 53.5807 103.772 55.4195 103.698C55.8999 103.678 56.8068 103.525 56.8068 103.525L56.9108 101.628C56.5044 101.725 56.0914 101.792 55.6753 101.829C55.0451 101.855 54.862 101.431 54.8391 100.85Z" fill="white"/>
<path d="M60.528 100.72L59.254 91.4736L57.2 91.7565L58.5312 101.414C58.6924 102.58 59.9716 103.24 61.1228 103.098L61.5264 101.285C60.8909 101.289 60.5727 101.048 60.528 100.72Z" fill="white"/>
<path d="M70.485 98.3576L68.925 92.7676L66.949 93.3209L68.4685 98.7798C68.4685 98.7798 67.7779 99.6961 66.7722 99.9769C65.9568 100.204 65.3412 100.032 65.078 99.0887L63.7177 94.2184L61.7053 94.78L63.0573 99.6191C63.57 101.456 64.9356 102.4 67.0759 101.803C68.4487 101.42 69.4305 100.372 69.4305 100.372C69.4305 100.372 70.3862 100.892 71.3919 100.615L71.5313 98.7694C70.901 98.861 70.5693 98.6613 70.485 98.3576Z" fill="white"/>
<path d="M74.9705 96.4404L71.2837 87.8604L69.3805 88.6778L73.2285 97.6364C73.6923 98.7169 75.1005 99.0144 76.1748 98.5724L76.0812 96.717C75.4728 96.8928 75.1015 96.7451 74.9705 96.4404Z" fill="white"/>
<path d="M83.9218 91.5409L80.9401 86.5645L79.1721 87.6211L82.0841 92.4831C82.0841 92.4831 81.6587 93.5491 80.7643 94.0857C80.0363 94.5205 79.3999 94.5173 78.8923 93.6781L76.2923 89.3423L74.5015 90.4156L77.0952 94.7243C78.0759 96.3592 79.6411 96.9083 81.5464 95.7643C82.7684 95.0363 83.4382 93.7613 83.4382 93.7613C83.4382 93.7613 84.4969 94.015 85.3934 93.4773L85.0398 91.6605C84.4563 91.9163 84.083 91.8123 83.9218 91.5409Z" fill="white"/>
<path d="M88.8784 82.0146L87.2955 80.9746C85.6107 83.0297 86.7828 84.4066 85.9965 86.0301L81.8573 81.2596L80.3057 82.6116L87.9101 91.3767L89.4629 90.0247L87.3329 87.5693L87.5784 87.0929L91.6032 88.1652L93.5324 86.4918L88.2138 85.2698C88.4842 84.0894 87.7177 83.636 88.8784 82.0146Z" fill="white"/>
<path d="M25.6495 84.3857C25.4193 84.3855 25.1942 84.4536 25.0027 84.5814C24.8112 84.7091 24.6619 84.8908 24.5736 85.1034C24.4854 85.316 24.4622 85.5501 24.507 85.7759C24.5518 86.0017 24.6625 86.2091 24.8252 86.372C24.9879 86.5349 25.1953 86.6458 25.4211 86.6908C25.6469 86.7358 25.8809 86.7128 26.0936 86.6247C26.3063 86.5367 26.4881 86.3875 26.6161 86.1961C26.744 86.0047 26.8123 85.7797 26.8123 85.5495C26.8123 85.241 26.6898 84.9452 26.4718 84.727C26.2537 84.5087 25.958 84.386 25.6495 84.3857Z" fill="white"/>
</svg>
